<svg width="1120" height="640" viewBox="0 0 1120 640" fill="none" xmlns="http://www.w3.org/2000/svg" role="img" aria-labelledby="title desc">
  <title id="title">LSM storage engine write and read path</title>
  <desc id="desc">Writes append to the WAL, update the active memtable, rotate into immutable memtables, and flush into SSTables. Reads check active memory, immutable memory, and then newest SSTables.</desc>
  <defs>
    <marker id="arrow" viewBox="0 0 10 10" refX="8" refY="5" markerWidth="8" markerHeight="8" orient="auto-start-reverse">
      <path d="M 0 0 L 10 5 L 0 10 z" fill="#22c55e"/>
    </marker>
    <style>
      .bg{fill:#0d0e0b}
      .grid{stroke:#2d2e27;stroke-width:1}
      .box{fill:#151611;stroke:#3b3d33;stroke-width:2}
      .hot{fill:#142019;stroke:#22c55e;stroke-width:2}
      .text{fill:#f2f1ea;font-family:ui-monospace,SFMono-Regular,Menlo,Consolas,monospace}
      .muted{fill:#aaa79a;font-family:ui-monospace,SFMono-Regular,Menlo,Consolas,monospace}
      .line{stroke:#22c55e;stroke-width:3;marker-end:url(#arrow)}
      .read{stroke:#8b9cff;stroke-width:3;marker-end:url(#arrow)}
    </style>
  </defs>
  <rect class="bg" width="1120" height="640" rx="18"/>
  <path class="grid" d="M80 0V640M160 0V640M240 0V640M320 0V640M400 0V640M480 0V640M560 0V640M640 0V640M720 0V640M800 0V640M880 0V640M960 0V640M1040 0V640M0 80H1120M0 160H1120M0 240H1120M0 320H1120M0 400H1120M0 480H1120M0 560H1120" opacity=".45"/>
  <text class="text" x="56" y="72" font-size="28" font-weight="700">LSM-shaped storage engine: current write and read path</text>
  <text class="muted" x="56" y="108" font-size="16">Project is in progress: compaction, manifest recovery, block cache, and startup WAL replay are next.</text>

  <rect class="box" x="56" y="176" width="160" height="86" rx="10"/>
  <text class="text" x="84" y="213" font-size="20">put/delete</text>
  <text class="muted" x="84" y="241" font-size="14">client write</text>

  <rect class="hot" x="286" y="154" width="180" height="80" rx="10"/>
  <text class="text" x="330" y="190" font-size="20">WAL</text>
  <text class="muted" x="314" y="216" font-size="14">length + checksum</text>

  <rect class="hot" x="286" y="278" width="180" height="80" rx="10"/>
  <text class="text" x="318" y="314" font-size="20">active</text>
  <text class="muted" x="314" y="340" font-size="14">skip-list memtable</text>

  <rect class="box" x="550" y="278" width="210" height="80" rx="10"/>
  <text class="text" x="588" y="314" font-size="20">immutable queue</text>
  <text class="muted" x="592" y="340" font-size="14">readable before flush</text>

  <rect class="box" x="840" y="220" width="220" height="92" rx="10"/>
  <text class="text" x="878" y="258" font-size="20">SSTable files</text>
  <text class="muted" x="876" y="286" font-size="14">blocks + index + filter</text>

  <path class="line" d="M216 216 C244 216 254 194 286 194"/>
  <path class="line" d="M216 230 C246 252 252 318 286 318"/>
  <path class="line" d="M466 318H550"/>
  <path class="line" d="M760 318 C798 318 806 266 840 266"/>

  <text class="muted" x="300" y="128" font-size="14">write first</text>
  <text class="muted" x="558" y="260" font-size="14">rotate when threshold is crossed</text>
  <text class="muted" x="836" y="198" font-size="14">flush sorted entries</text>

  <rect class="box" x="56" y="450" width="160" height="86" rx="10"/>
  <text class="text" x="92" y="487" font-size="20">get(key)</text>
  <text class="muted" x="84" y="515" font-size="14">client read</text>

  <path class="read" d="M216 493H286"/>
  <path class="read" d="M466 493H550"/>
  <path class="read" d="M760 493H840"/>
  <rect class="hot" x="286" y="450" width="180" height="86" rx="10"/>
  <text class="text" x="323" y="486" font-size="20">active</text>
  <text class="muted" x="316" y="514" font-size="14">newest memory</text>
  <rect class="box" x="550" y="450" width="210" height="86" rx="10"/>
  <text class="text" x="588" y="486" font-size="20">immutables</text>
  <text class="muted" x="586" y="514" font-size="14">newest to oldest</text>
  <rect class="box" x="840" y="450" width="220" height="86" rx="10"/>
  <text class="text" x="885" y="486" font-size="20">SSTables</text>
  <text class="muted" x="878" y="514" font-size="14">newest to oldest</text>
</svg>
