<svg width="880" height="560" viewBox="0 0 880 560" fill="none" xmlns="http://www.w3.org/2000/svg" role="img" aria-labelledby="title desc">
  <title id="title">LSM storage engine write and read path</title>
  <desc id="desc">Writes append to the WAL, update the active memtable, rotate into immutable memtables, and flush into SSTables. Reads check active memory, immutable memory, and then newest SSTables.</desc>
  <defs>
    <marker id="arrow" viewBox="0 0 10 10" refX="8" refY="5" markerWidth="8" markerHeight="8" orient="auto-start-reverse">
      <path d="M 0 0 L 10 5 L 0 10 z" fill="#22c55e"/>
    </marker>
    <style>
      .bg{fill:#0d0e0b}
      .grid{stroke:#2d2e27;stroke-width:1}
      .box{fill:#151611;stroke:#3b3d33;stroke-width:2}
      .hot{fill:#142019;stroke:#22c55e;stroke-width:2}
      .text{fill:#f2f1ea;font-family:ui-monospace,SFMono-Regular,Menlo,Consolas,monospace}
      .muted{fill:#aaa79a;font-family:ui-monospace,SFMono-Regular,Menlo,Consolas,monospace}
      .line{stroke:#22c55e;stroke-width:3;marker-end:url(#arrow)}
      .read{stroke:#8b9cff;stroke-width:3;marker-end:url(#arrow)}
    </style>
  </defs>
  <rect class="bg" width="880" height="560" rx="18"/>
  <path class="grid" d="M80 0V560M160 0V560M240 0V560M320 0V560M400 0V560M480 0V560M560 0V560M640 0V560M720 0V560M800 0V560M0 80H880M0 160H880M0 240H880M0 320H880M0 400H880M0 480H880" opacity=".45"/>
  <text class="text" x="40" y="58" font-size="22" font-weight="700">LSM-shaped storage engine: current write/read path</text>
  <text class="muted" x="40" y="90" font-size="13">In progress: compaction, manifest recovery, block cache, and startup WAL replay are next.</text>

  <rect class="box" x="40" y="150" width="130" height="76" rx="10"/>
  <text class="text" x="66" y="182" font-size="17">put/delete</text>
  <text class="muted" x="66" y="208" font-size="12">client write</text>

  <rect class="hot" x="230" y="130" width="150" height="70" rx="10"/>
  <text class="text" x="282" y="160" font-size="17">WAL</text>
  <text class="muted" x="252" y="184" font-size="12">length + checksum</text>

  <rect class="hot" x="230" y="248" width="150" height="70" rx="10"/>
  <text class="text" x="278" y="278" font-size="17">active</text>
  <text class="muted" x="253" y="302" font-size="12">skip-list memtable</text>

  <rect class="box" x="470" y="248" width="170" height="70" rx="10"/>
  <text class="text" x="505" y="278" font-size="17">immutables</text>
  <text class="muted" x="506" y="302" font-size="12">readable before flush</text>

  <rect class="box" x="690" y="194" width="150" height="82" rx="10"/>
  <text class="text" x="714" y="228" font-size="17">SSTables</text>
  <text class="muted" x="712" y="252" font-size="12">blocks + index</text>

  <path class="line" d="M170 184 C192 184 202 165 230 165"/>
  <path class="line" d="M170 198 C198 222 202 283 230 283"/>
  <path class="line" d="M380 283H470"/>
  <path class="line" d="M640 283 C666 283 670 235 690 235"/>

  <text class="muted" x="240" y="110" font-size="12">write first</text>
  <text class="muted" x="456" y="230" font-size="12">rotate when full</text>
  <text class="muted" x="682" y="174" font-size="12">flush sorted entries</text>

  <rect class="box" x="40" y="402" width="130" height="76" rx="10"/>
  <text class="text" x="72" y="434" font-size="17">get(key)</text>
  <text class="muted" x="66" y="460" font-size="12">client read</text>

  <path class="read" d="M170 440H230"/>
  <path class="read" d="M380 440H470"/>
  <path class="read" d="M640 440H690"/>
  <rect class="hot" x="230" y="402" width="150" height="76" rx="10"/>
  <text class="text" x="278" y="434" font-size="17">active</text>
  <text class="muted" x="257" y="460" font-size="12">newest memory</text>
  <rect class="box" x="470" y="402" width="170" height="76" rx="10"/>
  <text class="text" x="508" y="434" font-size="17">immutables</text>
  <text class="muted" x="508" y="460" font-size="12">newest to oldest</text>
  <rect class="box" x="690" y="402" width="150" height="76" rx="10"/>
  <text class="text" x="725" y="434" font-size="17">SSTables</text>
  <text class="muted" x="715" y="460" font-size="12">newest to oldest</text>
</svg>
