<svg width="1120" height="560" viewBox="0 0 1120 560" fill="none" xmlns="http://www.w3.org/2000/svg" role="img" aria-labelledby="title desc">
  <title id="title">SSTable file layout</title>
  <desc id="desc">The SSTable contains sorted data blocks followed by a block index, Bloom filter, and footer with offsets and lengths.</desc>
  <defs>
    <style>
      .bg{fill:#0d0e0b}
      .grid{stroke:#2d2e27;stroke-width:1}
      .box{fill:#151611;stroke:#3b3d33;stroke-width:2}
      .hot{fill:#142019;stroke:#22c55e;stroke-width:2}
      .accent{fill:#1d1b2a;stroke:#8b9cff;stroke-width:2}
      .text{fill:#f2f1ea;font-family:ui-monospace,SFMono-Regular,Menlo,Consolas,monospace}
      .muted{fill:#aaa79a;font-family:ui-monospace,SFMono-Regular,Menlo,Consolas,monospace}
    </style>
  </defs>
  <rect class="bg" width="1120" height="560" rx="18"/>
  <path class="grid" d="M80 0V560M160 0V560M240 0V560M320 0V560M400 0V560M480 0V560M560 0V560M640 0V560M720 0V560M800 0V560M880 0V560M960 0V560M1040 0V560M0 80H1120M0 160H1120M0 240H1120M0 320H1120M0 400H1120M0 480H1120" opacity=".45"/>
  <text class="text" x="56" y="72" font-size="28" font-weight="700">SSTable layout in the current storage engine</text>
  <text class="muted" x="56" y="108" font-size="16">Immutable file: sorted blocks first, lookup metadata at the end.</text>

  <rect class="hot" x="74" y="178" width="180" height="126" rx="10"/>
  <text class="text" x="116" y="220" font-size="20">data block</text>
  <text class="muted" x="104" y="252" font-size="14">entry count</text>
  <text class="muted" x="104" y="276" font-size="14">key/value rows</text>

  <rect class="hot" x="274" y="178" width="180" height="126" rx="10"/>
  <text class="text" x="316" y="220" font-size="20">data block</text>
  <text class="muted" x="304" y="252" font-size="14">sorted keys</text>
  <text class="muted" x="304" y="276" font-size="14">tombstones too</text>

  <rect class="hot" x="474" y="178" width="180" height="126" rx="10"/>
  <text class="text" x="516" y="220" font-size="20">data block</text>
  <text class="muted" x="504" y="252" font-size="14">read by offset</text>
  <text class="muted" x="504" y="276" font-size="14">decoded on demand</text>

  <rect class="box" x="694" y="178" width="154" height="126" rx="10"/>
  <text class="text" x="722" y="220" font-size="20">index</text>
  <text class="muted" x="716" y="252" font-size="14">first key</text>
  <text class="muted" x="716" y="276" font-size="14">offset + len</text>

  <rect class="accent" x="868" y="178" width="118" height="126" rx="10"/>
  <text class="text" x="894" y="220" font-size="20">filter</text>
  <text class="muted" x="888" y="252" font-size="14">Bloom</text>
  <text class="muted" x="888" y="276" font-size="14">miss skip</text>

  <rect class="box" x="1006" y="178" width="80" height="126" rx="10"/>
  <text class="text" x="1022" y="220" font-size="18">footer</text>
  <text class="muted" x="1024" y="252" font-size="12">magic</text>
  <text class="muted" x="1024" y="274" font-size="12">offsets</text>

  <text class="muted" x="74" y="344" font-size="14">file start</text>
  <text class="muted" x="999" y="344" font-size="14">file end</text>
  <path d="M84 330H1080" stroke="#3b3d33" stroke-width="2"/>
  <path d="M84 322V338M1080 322V338" stroke="#3b3d33" stroke-width="2"/>

  <rect class="box" x="164" y="404" width="792" height="74" rx="10"/>
  <text class="text" x="198" y="436" font-size="18">reader path</text>
  <text class="muted" x="198" y="462" font-size="14">read footer from end -> load block index and Bloom filter -> use first-key index to read one candidate block</text>
</svg>
