<svg width="880" height="520" viewBox="0 0 880 520" fill="none" xmlns="http://www.w3.org/2000/svg" role="img" aria-labelledby="title desc">
  <title id="title">SSTable file layout</title>
  <desc id="desc">The SSTable contains sorted data blocks followed by a block index, Bloom filter, and footer with offsets and lengths.</desc>
  <defs>
    <style>
      .bg{fill:#0d0e0b}
      .grid{stroke:#2d2e27;stroke-width:1}
      .box{fill:#151611;stroke:#3b3d33;stroke-width:2}
      .hot{fill:#142019;stroke:#22c55e;stroke-width:2}
      .accent{fill:#1d1b2a;stroke:#8b9cff;stroke-width:2}
      .text{fill:#f2f1ea;font-family:ui-monospace,SFMono-Regular,Menlo,Consolas,monospace}
      .muted{fill:#aaa79a;font-family:ui-monospace,SFMono-Regular,Menlo,Consolas,monospace}
    </style>
  </defs>
  <rect class="bg" width="880" height="520" rx="18"/>
  <path class="grid" d="M80 0V520M160 0V520M240 0V520M320 0V520M400 0V520M480 0V520M560 0V520M640 0V520M720 0V520M800 0V520M0 80H880M0 160H880M0 240H880M0 320H880M0 400H880M0 480H880" opacity=".45"/>
  <text class="text" x="40" y="58" font-size="22" font-weight="700">SSTable layout in the current storage engine</text>
  <text class="muted" x="40" y="90" font-size="13">Immutable file: sorted blocks first, lookup metadata at the end.</text>

  <rect class="hot" x="40" y="150" width="150" height="112" rx="10"/>
  <text class="text" x="78" y="188" font-size="17">data block</text>
  <text class="muted" x="66" y="218" font-size="12">entry count</text>
  <text class="muted" x="66" y="240" font-size="12">key/value rows</text>

  <rect class="hot" x="210" y="150" width="150" height="112" rx="10"/>
  <text class="text" x="248" y="188" font-size="17">data block</text>
  <text class="muted" x="236" y="218" font-size="12">sorted keys</text>
  <text class="muted" x="236" y="240" font-size="12">tombstones too</text>

  <rect class="hot" x="380" y="150" width="150" height="112" rx="10"/>
  <text class="text" x="418" y="188" font-size="17">data block</text>
  <text class="muted" x="406" y="218" font-size="12">read by offset</text>
  <text class="muted" x="406" y="240" font-size="12">decoded on demand</text>

  <rect class="box" x="560" y="150" width="110" height="112" rx="10"/>
  <text class="text" x="586" y="188" font-size="17">index</text>
  <text class="muted" x="580" y="218" font-size="12">first key</text>
  <text class="muted" x="580" y="240" font-size="12">offset + len</text>

  <rect class="accent" x="690" y="150" width="88" height="112" rx="10"/>
  <text class="text" x="710" y="188" font-size="17">filter</text>
  <text class="muted" x="710" y="218" font-size="12">Bloom</text>
  <text class="muted" x="710" y="240" font-size="12">miss skip</text>

  <rect class="box" x="798" y="150" width="52" height="112" rx="10"/>
  <text class="text" x="809" y="188" font-size="14">footer</text>
  <text class="muted" x="810" y="218" font-size="10">magic</text>
  <text class="muted" x="810" y="238" font-size="10">offsets</text>

  <text class="muted" x="44" y="306" font-size="12">file start</text>
  <text class="muted" x="794" y="306" font-size="12">file end</text>
  <path d="M48 292H844" stroke="#3b3d33" stroke-width="2"/>
  <path d="M48 284V300M844 284V300" stroke="#3b3d33" stroke-width="2"/>

  <rect class="box" x="80" y="370" width="720" height="74" rx="10"/>
  <text class="text" x="110" y="400" font-size="16">reader path</text>
  <text class="muted" x="110" y="426" font-size="12">read footer -> load index/filter -> use first-key index to read one candidate block</text>
</svg>
